<svg width="16" height="16" viewBox="0 0 16 16" fill="none" xmlns="http://www.w3.org/2000/svg">
<path d="M8.66536 14.6667H7.33203V12.6667H8.66536V14.6667ZM12.2414 13.1854L10.8274 11.7714L11.77 10.8287L13.1847 12.2434L12.2427 13.1854H12.2414ZM3.75603 13.1854L2.8127 12.2427L4.22603 10.828L5.16936 11.7707L3.75603 13.1847V13.1854ZM7.9987 11.338C6.15535 11.3373 4.66154 9.8425 4.66203 7.99915C4.66252 6.1558 6.15712 4.6618 8.00048 4.66204C9.84383 4.66229 11.338 6.15669 11.338 8.00004C11.3362 9.84333 9.84198 11.3369 7.9987 11.338ZM7.9987 5.99537C6.89173 5.99611 5.99487 6.89396 5.99536 8.00093C5.99586 9.1079 6.8935 10.005 8.00048 10.0047C9.10745 10.0045 10.0047 9.10701 10.0047 8.00004C10.0036 6.89283 9.10591 5.99574 7.9987 5.99537ZM14.6654 8.66671H12.6654V7.33337H14.6654V8.66671ZM3.33203 8.66671H1.33203V7.33337H3.33203V8.66671ZM11.7694 5.17204L10.8274 4.22871L12.2414 2.81404L13.1847 3.75737L11.77 5.17137L11.7694 5.17204ZM4.22736 5.17204L2.81403 3.75804L3.75736 2.81537L5.1707 4.23004L4.22803 5.17137L4.22736 5.17204ZM8.66536 3.33337H7.33203V1.33337H8.66536V3.33337Z" fill="#1D232E"/>
</svg>
